<?xml version="1.0" encoding="UTF-8"?>
<svg width="5373px" height="1000px" viewBox="0 0 5373 1000" version="1.1" xmlns="http://www.w3.org/2000/svg" xmlns:xlink="http://www.w3.org/1999/xlink">
    <!-- Generator: Sketch 42 (36781) - http://www.bohemiancoding.com/sketch -->
    <title>AvenLogoPlain</title>
    <desc>Created with Sketch.</desc>
    <defs>
        <rect id="path-1" x="-341" y="-383" width="6056" height="3898"></rect>
        <mask id="mask-2" maskContentUnits="userSpaceOnUse" maskUnits="objectBoundingBox" x="0" y="0" width="6056" height="3898" fill="white">
            <use xlink:href="#path-1"></use>
        </mask>
        <linearGradient x1="50%" y1="3.2425861%" x2="50%" y2="100%" id="linearGradient-3">
            <stop stop-color="#555555" offset="0%"></stop>
            <stop stop-color="#444444" offset="100%"></stop>
        </linearGradient>
    </defs>
    <g id="Page-1" stroke="none" stroke-width="1" fill="none" fill-rule="evenodd">
        <use id="Rectangle-2" stroke="#979797" mask="url(#mask-2)" stroke-width="28" xlink:href="#path-1"></use>
        <g id="AvenLogoPlain" fill="url(#linearGradient-3)">
            <polygon id="Combined-Shape-path" points="3946 0 3646 0 3546 200 3156 200 3056 400 3446 400 3346.23901 599.998905 2956 600 2856 800 3246 800 3146 1000 3446 1000"></polygon>
            <polygon id="Combined-Shape-path" points="2606 0 2106 1000 2406 1000 2906 0"></polygon>
            <polygon id="Combined-Shape-path" points="1426 0 1126 0 1626 1000 1926 1000"></polygon>
            <polygon id="Combined-Shape-path" points="2006 500 2206 100 1806 100"></polygon>
            <polygon id="Combined-Shape-path" points="4346 500 4546 100 4146 100"></polygon>
            <polygon id="Combined-Shape-path" points="4046 500 3846 900 4246 900"></polygon>
            <polygon id="Combined-Shape-path" points="1026 500 826 900 1226 900"></polygon>
            <polygon id="Combined-Shape-path" points="0 1.13686838e-13 0 1000 426.070357 1000 926.070357 0"></polygon>
            <polygon id="Combined-Shape-path" transform="translate(4909.035179, 500.000000) scale(-1, -1) translate(-4909.035179, -500.000000) " points="4446 1.13686838e-13 4446 1000 4872.07036 1000 5372.07036 0"></polygon>
        </g>
    </g>
</svg>